<?xml version="1.0" standalone="no"?>
<!DOCTYPE svg PUBLIC "-//W3C//DTD SVG 20010904//EN"
 "http://www.w3.org/TR/2001/REC-SVG-20010904/DTD/svg10.dtd">
<svg version="1.0" xmlns="http://www.w3.org/2000/svg"
 width="700.000000pt" height="700.000000pt" viewBox="0 0 700.000000 700.000000"
 preserveAspectRatio="xMidYMid meet">
<metadata>
Created by potrace 1.14, written by Peter Selinger 2001-2017
</metadata>
<g transform="translate(0.000000,700.000000) scale(0.100000,-0.100000)"
fill="#000000" stroke="none">
<path d="M3303 6720 c-283 -21 -538 -72 -803 -160 -490 -163 -897 -415 -1265
-784 -263 -264 -445 -515 -606 -836 -161 -322 -263 -652 -316 -1030 -25 -177
-25 -663 0 -835 90 -618 306 -1126 681 -1600 103 -130 382 -408 516 -514 714
-565 1621 -802 2524 -660 570 91 1103 332 1553 706 131 108 378 362 479 493
385 497 612 1065 674 1689 13 133 13 470 0 602 -63 626 -287 1194 -668 1687
l-64 83 80 84 c59 62 86 99 101 140 87 231 -108 467 -349 423 -78 -14 -117
-37 -208 -123 l-80 -75 -89 67 c-450 340 -1004 561 -1573 627 -167 19 -437 26
-587 16z m592 -155 c485 -63 930 -226 1326 -486 82 -54 193 -134 224 -161 9
-8 -450 -478 -468 -478 -4 0 -31 17 -60 38 -143 106 -354 218 -549 290 -304
114 -584 159 -922 149 -537 -16 -1013 -191 -1451 -535 -105 -83 -320 -304
-404 -415 -266 -355 -421 -732 -482 -1177 -17 -121 -17 -465 -1 -590 72 -538
297 -1007 667 -1389 320 -330 696 -552 1128 -666 395 -105 830 -106 1223 -4
912 236 1609 983 1783 1909 61 323 52 679 -24 1000 -80 336 -193 574 -440 926
-8 11 43 67 225 249 129 129 237 235 240 235 10 0 174 -227 241 -335 82 -131
201 -369 257 -515 279 -726 277 -1535 -5 -2249 -372 -946 -1208 -1666 -2188
-1886 -266 -59 -365 -69 -695 -69 -262 0 -324 3 -440 21 -298 47 -580 129
-824 238 -928 419 -1598 1270 -1780 2265 -45 244 -60 620 -35 873 102 1039
725 1954 1664 2443 353 184 750 298 1165 334 144 12 479 4 625 -15z m2102
-521 c52 -39 73 -80 73 -142 0 -29 -6 -65 -14 -80 -8 -15 -171 -183 -363 -374
l-348 -347 -126 123 -127 123 352 351 c209 210 365 358 386 367 50 22 123 13
167 -21z m-2087 -294 c893 -159 1607 -817 1828 -1685 53 -210 72 -358 72 -570
0 -593 -225 -1154 -633 -1582 -761 -796 -1965 -939 -2897 -345 -193 122 -442
353 -577 533 -329 439 -490 944 -470 1474 13 339 83 617 231 920 231 471 602
840 1071 1065 236 113 426 166 760 214 17 2 134 3 260 1 184 -2 255 -7 355
-25z"/>
<path d="M3320 5539 c-858 -88 -1574 -703 -1790 -1536 -41 -158 -52 -247 -57
-454 -7 -280 18 -458 98 -702 221 -676 802 -1200 1504 -1358 504 -114 1053
-25 1496 241 553 334 905 875 990 1524 15 119 6 472 -15 586 -80 424 -259 776
-551 1079 -435 451 -1060 683 -1675 620z m1791 -986 c216 -328 319 -670 319
-1059 0 -238 -31 -420 -105 -634 -194 -554 -646 -998 -1206 -1184 -470 -156
-1008 -117 -1450 104 -72 36 -211 120 -249 150 -24 19 -23 19 25 -1 174 -74
377 -134 560 -165 144 -25 463 -25 605 0 290 51 573 176 815 359 410 310 674
712 771 1171 35 165 44 488 20 676 -28 211 -92 458 -164 638 -12 28 -19 52
-17 52 3 0 37 -48 76 -107z m-1058 -102 c166 -44 323 -135 448 -260 125 -125
213 -277 259 -446 33 -119 38 -320 12 -445 -39 -192 -121 -347 -256 -488 -137
-143 -300 -237 -493 -283 -103 -25 -301 -30 -398 -10 -412 85 -709 381 -796
796 -7 33 -13 119 -12 190 2 265 90 477 278 673 146 153 335 255 543 292 85
16 328 5 415 -19z"/>
</g>
</svg>
