<svg xmlns="http://www.w3.org/2000/svg" version="1.1" xmlns:xlink="http://www.w3.org/1999/xlink" xmlns:svgjs="http://svgjs.com/svgjs" width="512px" height="512px"><svg enable-background="new 0 0 512 512" height="512px" version="1.1" viewBox="0 0 512 512" width="512px" xml:space="preserve" xmlns="http://www.w3.org/2000/svg" xmlns:xlink="http://www.w3.org/1999/xlink"><g id="SvgjsG1002"><g><g><circle cx="257.5" cy="256.5" fill="#F2F2F9" r="231.5"></circle></g></g><g opacity="0.8"><g><path d="M415.375,85.504c0,0,139.309,179.202-5.864,322.523c-142.937,141.113-321.416,4.758-321.416,4.758     s152.753,162.652,333.419,6.028C421.514,418.813,577.88,263.787,415.375,85.504z" fill="#FFFFFF"></path></g></g><g><g><circle cx="296.5" cy="295.5" fill="#DADAEA" r="172.645"></circle></g></g><g id="SvgjsG1001"><g><g><path d="M379.58,134.42l-98.913,150.247L135.42,378.58c-31.24-31.24-50.56-74.4-50.56-122.08      c0-95.35,77.29-172.64,172.64-172.64C305.18,83.86,348.34,103.18,379.58,134.42z" fill="#DADAEA"></path></g></g><g><g><path d="M379.58,134.42c31.24,31.24,50.56,74.4,50.56,122.08c0,95.35-77.29,172.64-172.64,172.64      c-47.68,0-90.84-19.319-122.08-50.56L379.58,134.42z" fill="#F2F2F9"></path></g></g></g><g><g><circle cx="257.5" cy="256.5" fill="#CE8A52" r="145.248"></circle></g></g><g><g><path d="M99.803,424.523c0,0-139.309-179.202,5.864-322.523c142.937-141.113,321.416-4.758,321.416-4.758     S274.33-65.41,93.664,91.214C93.664,91.214-62.702,246.24,99.803,424.523z" fill="#DADAEA"></path></g></g><g><g><g><path d="M365.721,120.386l52.723-52.723c7.077-7.077,18.552-7.077,25.629,0c7.076,7.077,7.076,18.552,0,25.628      l-52.723,52.723" fill="#F2F2F9"></path></g></g></g><g><g><path d="M435.218,62.793c0,0,8.657,12.582-1.968,23.207s-51.07,51.07-51.07,51.07l11.57,10.18l51-51     C444.75,96.25,462.936,66.836,435.218,62.793" fill="#DADAEA"></path></g></g><g opacity="0.8"><g><path d="M425.518,69.102c2.7,2.7,2.177,7.604-1.173,10.953l-43.106,43.106c-3.349,3.349-8.252,3.874-10.952,1.173     l-0.12-0.121c-2.701-2.699-2.177-7.604,1.172-10.951l43.107-43.107c3.349-3.349,8.251-3.874,10.952-1.173L425.518,69.102z" fill="#FFFFFF"></path></g></g><g><g><path d="M155.461,360.389c0,0-62.993-106.477,17.971-187.44s175.68-27.644,195.007-10.2     c0,0-55.116-62.75-129.599-49.551s-142.574,83.73-122.661,175.146C116.179,288.343,122.994,326.624,155.461,360.389z" fill="#B57341"></path></g></g><g><g><path d="M359.542,153.684c0,0,62.993,106.477-17.971,187.439c-80.964,80.965-175.68,27.645-195.007,10.201     c0,0,55.116,62.75,129.599,49.551s142.574-83.73,122.661-175.146C398.824,225.729,392.009,187.447,359.542,153.684z" fill="#E5A16E"></path></g></g><g><g><circle cx="278.167" cy="256.494" fill="#FFE5D2" r="72.167"></circle></g></g><g><g><polygon fill="#DADAEA" points="452.887,239.334 489.227,252.667 489,282.667 457.83,271.199    "></polygon></g></g></g><g id="SvgjsG1000"><g><g><path d="M257.5,434.145c-97.954,0-177.645-79.691-177.645-177.645S159.546,78.855,257.5,78.855     c97.953,0,177.645,79.691,177.645,177.645S355.453,434.145,257.5,434.145z M257.5,88.855     c-92.439,0-167.645,75.205-167.645,167.645S165.061,424.145,257.5,424.145S425.145,348.939,425.145,256.5     S349.939,88.855,257.5,88.855z" fill="#3F456B"></path></g></g><g><g><path d="M257.5,493c-63.172,0-122.562-24.601-167.231-69.269C45.6,379.062,21,319.672,21,256.5     c0-63.171,24.6-122.562,69.269-167.23S194.329,20,257.5,20c54.812,0,108.238,19.18,150.438,54.007l-6.365,7.713     C361.16,48.368,309.994,30,257.5,30C197,30,140.12,53.561,97.34,96.341C54.56,139.121,31,196,31,256.5     c0,60.501,23.56,117.38,66.34,160.16C140.12,459.44,197,483,257.5,483c60.501,0,117.38-23.56,160.16-66.34S484,317.001,484,256.5     c0-53.752-19.159-105.862-53.949-146.732l7.615-6.482C473.993,145.963,494,200.375,494,256.5     c0,63.172-24.601,122.562-69.269,167.231C380.062,468.399,320.672,493,257.5,493z" fill="#3F456B"></path></g></g><g><g><path d="M257.5,406.748c-82.847,0-150.248-67.401-150.248-150.248S174.653,106.252,257.5,106.252     c82.847,0,150.248,67.401,150.248,150.248S340.347,406.748,257.5,406.748z M257.5,116.252     c-77.333,0-140.248,62.915-140.248,140.248S180.167,396.748,257.5,396.748S397.748,333.833,397.748,256.5     S334.833,116.252,257.5,116.252z" fill="#3F456B"></path></g></g><g><g><g><path d="M394.885,149.549l-7.07-7.07l52.723-52.723c5.115-5.116,5.115-13.44-0.001-18.558      c-2.478-2.479-5.773-3.843-9.278-3.843s-6.801,1.364-9.279,3.843l-52.723,52.723l-7.07-7.07l52.723-52.723      c9.014-9.016,23.684-9.016,32.699,0c9.015,9.016,9.015,23.685,0,32.698L394.885,149.549z" fill="#3F456B"></path></g></g></g></g></svg><style>@media (prefers-color-scheme: light) { :root { filter: none; } }
</style></svg>